<svg width="1384px" height="300px"
 viewBox="0.00 0.00 512.00 111.14" xmlns="http://www.w3.org/2000/svg" xmlns:xlink="http://www.w3.org/1999/xlink">
<g id="graph0" class="graph" transform="scale(1.0 1.0) rotate(0.0) translate(4.0 107.14)">
<title>x</title>
<polygon fill="white" stroke="transparent" points="-4,4 -4,-107.14 508,-107.14 508,4 -4,4"/>
<!-- a -->
<g id="node1" class="node">
<title>a</title>
<ellipse fill="none" stroke="black" cx="27" cy="-58.14" rx="27" ry="18"/>
<text text-anchor="middle" x="27" y="-53.94" font-family="Times,serif" font-size="14.00">a</text>
</g>
<!-- b -->
<g id="node2" class="node">
<title>b</title>
<ellipse fill="none" stroke="black" cx="117" cy="-58.14" rx="27" ry="18"/>
<text text-anchor="middle" x="117" y="-53.94" font-family="Times,serif" font-size="14.00">b</text>
</g>
<!-- a&#45;&#45;b -->
<g id="1" class="edge link&#45;class">
<title>a&#45;&#45;b</title>
<path fill="none" stroke="black" d="M54.4,-58.14C65.64,-58.14 78.72,-58.14 89.92,-58.14"/>
</g>
<!-- c -->
<g id="node3" class="node">
<title>c</title>
<ellipse fill="none" stroke="black" cx="207" cy="-58.14" rx="27" ry="18"/>
<text text-anchor="middle" x="207" y="-53.94" font-family="Times,serif" font-size="14.00">c</text>
</g>
<!-- b&#45;&#45;c -->
<g id="2" class="edge link&#45;class">
<title>b&#45;&#45;c</title>
<path fill="none" stroke="#00ffff" d="M144.4,-58.14C155.64,-58.14 168.72,-58.14 179.92,-58.14"/>
</g>
<!-- e -->
<g id="node4" class="node">
<title>e</title>
<ellipse fill="none" stroke="black" cx="387" cy="-85.14" rx="27" ry="18"/>
<text text-anchor="middle" x="387" y="-80.94" font-family="Times,serif" font-size="14.00">e</text>
</g>
<!-- c&#45;&#45;e -->
<g id="4" class="edge link&#45;class">
<title>c&#45;&#45;e</title>
<path fill="none" stroke="red" d="M233.5,-62C267.34,-67.14 326.73,-76.15 360.54,-81.27"/>
</g>
<!-- d -->
<g id="node5" class="node">
<title>d</title>
<ellipse fill="none" stroke="black" cx="297" cy="-35.14" rx="27" ry="18"/>
<text text-anchor="middle" x="297" y="-30.94" font-family="Times,serif" font-size="14.00">d</text>
</g>
<!-- c&#45;&#45;d -->
<g id="3" class="edge link&#45;class">
<title>c&#45;&#45;d</title>
<path fill="none" stroke="#00ffff" d="M232.51,-51.73C244.72,-48.54 259.43,-44.69 271.62,-41.51"/>
</g>
<!-- f -->
<g id="node7" class="node">
<title>f</title>
<ellipse fill="none" stroke="black" cx="477" cy="-35.14" rx="27" ry="18"/>
<text text-anchor="middle" x="477" y="-30.94" font-family="Times,serif" font-size="14.00">f</text>
</g>
<!-- e&#45;&#45;f -->
<g id="5" class="edge link&#45;class">
<title>e&#45;&#45;f</title>
<path fill="none" stroke="#00ffff" d="M407.97,-73.79C422.27,-65.66 441.45,-54.76 455.81,-46.61"/>
</g>
<!-- d&#45;&#45;e -->
<g id="6" class="edge link&#45;class">
<title>d&#45;&#45;e</title>
<path fill="none" stroke="#00ffff" d="M317.97,-46.48C332.27,-54.61 351.45,-65.51 365.81,-73.66"/>
</g>
<!-- g -->
<g id="node6" class="node">
<title>g</title>
<ellipse fill="none" stroke="black" cx="387" cy="-31.14" rx="27" ry="18"/>
<text text-anchor="middle" x="387" y="-26.94" font-family="Times,serif" font-size="14.00">g</text>
</g>
<!-- d&#45;&#45;g -->
<g id="8" class="edge link&#45;class">
<title>d&#45;&#45;g</title>
<path fill="none" stroke="black" d="M324.4,-33.94C335.64,-33.42 348.72,-32.83 359.92,-32.32"/>
</g>
<!-- d&#45;&#45;f -->
<g id="7" class="edge link&#45;class">
<title>d&#45;&#45;f</title>
<path fill="none" stroke="black" d="M316.94,-22.77C328.78,-15.79 344.66,-7.76 360,-4.14 383.36,1.38 390.64,1.38 414,-4.14 429.34,-7.76 445.22,-15.79 457.06,-22.77"/>
</g>
</g>
</svg>
