<svg width="1487px" height="300px"
 viewBox="0.00 0.00 332.00 67.00" xmlns="http://www.w3.org/2000/svg" xmlns:xlink="http://www.w3.org/1999/xlink">
<g id="graph0" class="graph" transform="scale(1.0 1.0) rotate(0.0) translate(4.0 63.0)">
<title>x</title>
<polygon fill="white" stroke="transparent" points="-4,4 -4,-63 328,-63 328,4 -4,4"/>
<!-- 0 -->
<g id="node1" class="node">
<title>0</title>
<ellipse fill="none" stroke="black" cx="27" cy="-18" rx="27" ry="18"/>
<text text-anchor="middle" x="27" y="-13.8" font-family="Times,serif" font-size="14.00">0</text>
</g>
<!-- 1 -->
<g id="node2" class="node">
<title>1</title>
<ellipse fill="none" stroke="black" cx="117" cy="-18" rx="27" ry="18"/>
<text text-anchor="middle" x="117" y="-13.8" font-family="Times,serif" font-size="14.00">1</text>
</g>
<!-- 0&#45;&gt;1 -->
<g id="1" class="edge link&#45;class">
<title>0&#45;&gt;1</title>
<path fill="none" stroke="black" d="M54.4,-18C62.39,-18 71.31,-18 79.82,-18"/>
<polygon fill="black" stroke="black" points="79.92,-21.5 89.92,-18 79.92,-14.5 79.92,-21.5"/>
</g>
<!-- 1&#45;&gt;1 -->
<g id="5" class="edge link&#45;class">
<title>1&#45;&gt;1</title>
<path fill="none" stroke="black" d="M101.77,-33.17C97.16,-43.66 102.23,-54 117,-54 126.92,-54 132.47,-49.33 133.64,-43.09"/>
<polygon fill="black" stroke="black" points="137.1,-42.57 132.23,-33.17 130.17,-43.56 137.1,-42.57"/>
</g>
<!-- 2 -->
<g id="node3" class="node">
<title>2</title>
<ellipse fill="none" stroke="black" cx="207" cy="-41" rx="27" ry="18"/>
<text text-anchor="middle" x="207" y="-36.8" font-family="Times,serif" font-size="14.00">2</text>
</g>
<!-- 1&#45;&gt;2 -->
<g id="3" class="edge link&#45;class">
<title>1&#45;&gt;2</title>
<path fill="none" stroke="black" d="M142.51,-24.41C151.57,-26.77 162.01,-29.5 171.78,-32.05"/>
<polygon fill="black" stroke="black" points="171.06,-35.49 181.62,-34.63 172.83,-28.71 171.06,-35.49"/>
</g>
<!-- 3 -->
<g id="node4" class="node">
<title>3</title>
<ellipse fill="none" stroke="black" cx="297" cy="-41" rx="27" ry="18"/>
<text text-anchor="middle" x="297" y="-36.8" font-family="Times,serif" font-size="14.00">3</text>
</g>
<!-- 2&#45;&gt;3 -->
<g id="6" class="edge link&#45;class">
<title>2&#45;&gt;3</title>
<path fill="none" stroke="black" d="M227.97,-29.48C239.22,-27.41 253.5,-26.97 266.06,-28.13"/>
<polygon fill="black" stroke="black" points="265.73,-31.62 276.11,-29.49 266.67,-24.68 265.73,-31.62"/>
</g>
<!-- 2&#45;&gt;3 -->
<g id="4" class="edge link&#45;class">
<title>2&#45;&gt;3</title>
<path fill="none" stroke="black" d="M227.97,-52.52C239.22,-54.59 253.5,-55.03 266.06,-53.87"/>
<polygon fill="black" stroke="black" points="266.67,-57.32 276.11,-52.51 265.73,-50.38 266.67,-57.32"/>
</g>
<!-- 3&#45;&gt;1 -->
<g id="2" class="edge link&#45;class">
<title>3&#45;&gt;1</title>
<path fill="none" stroke="black" d="M275.76,-29.66C263.97,-23.71 248.6,-17.04 234,-14 207.48,-8.48 176.83,-9.86 153.7,-12.41"/>
<polygon fill="black" stroke="black" points="153.14,-8.95 143.64,-13.65 153.99,-15.9 153.14,-8.95"/>
</g>
<!-- 3&#45;&gt;2 -->
<g id="7" class="edge link&#45;class">
<title>3&#45;&gt;2</title>
<path fill="none" stroke="black" d="M269.92,-41C261.95,-41 253.04,-41 244.52,-41"/>
<polygon fill="black" stroke="black" points="244.4,-37.5 234.4,-41 244.4,-44.5 244.4,-37.5"/>
</g>
</g>
</svg>
