<svg width="1487px" height="300px"
 viewBox="0.00 0.00 332.00 67.00" xmlns="http://www.w3.org/2000/svg" xmlns:xlink="http://www.w3.org/1999/xlink">
<g id="graph0" class="graph" transform="scale(1.0 1.0) rotate(0.0) translate(4.0 63.0)">
<title>x</title>
<polygon fill="white" stroke="transparent" points="-4,4 -4,-63 328,-63 328,4 -4,4"/>
<!-- 0 -->
<g id="node1" class="node">
<title>0</title>
<ellipse fill="none" stroke="black" cx="27" cy="-18" rx="27" ry="18"/>
<text text-anchor="middle" x="27" y="-13.8" font-family="Times,serif" font-size="14.00">0</text>
</g>
<!-- 1 -->
<g id="node2" class="node">
<title>1</title>
<ellipse fill="none" stroke="black" cx="117" cy="-18" rx="27" ry="18"/>
<text text-anchor="middle" x="117" y="-13.8" font-family="Times,serif" font-size="14.00">1</text>
</g>
<!-- 0&#45;&#45;1 -->
<g id="1" class="edge link&#45;class">
<title>0&#45;&#45;1</title>
<path fill="none" stroke="black" d="M54.4,-18C65.64,-18 78.72,-18 89.92,-18"/>
</g>
<!-- 1&#45;&#45;1 -->
<g id="5" class="edge link&#45;class">
<title>1&#45;&#45;1</title>
<path fill="none" stroke="black" d="M101.77,-33.17C97.16,-43.66 102.23,-54 117,-54 131.77,-54 136.84,-43.66 132.23,-33.17"/>
</g>
<!-- 2 -->
<g id="node3" class="node">
<title>2</title>
<ellipse fill="none" stroke="black" cx="207" cy="-41" rx="27" ry="18"/>
<text text-anchor="middle" x="207" y="-36.8" font-family="Times,serif" font-size="14.00">2</text>
</g>
<!-- 1&#45;&#45;2 -->
<g id="3" class="edge link&#45;class">
<title>1&#45;&#45;2</title>
<path fill="none" stroke="black" d="M142.51,-24.41C154.72,-27.6 169.43,-31.44 181.62,-34.63"/>
</g>
<!-- 3 -->
<g id="node4" class="node">
<title>3</title>
<ellipse fill="none" stroke="black" cx="297" cy="-41" rx="27" ry="18"/>
<text text-anchor="middle" x="297" y="-36.8" font-family="Times,serif" font-size="14.00">3</text>
</g>
<!-- 2&#45;&#45;3 -->
<g id="6" class="edge link&#45;class">
<title>2&#45;&#45;3</title>
<path fill="none" stroke="black" d="M227.97,-29.48C242.37,-26.84 261.73,-26.84 276.11,-29.49"/>
</g>
<!-- 2&#45;&#45;3 -->
<g id="4" class="edge link&#45;class">
<title>2&#45;&#45;3</title>
<path fill="none" stroke="black" d="M227.97,-52.52C242.37,-55.16 261.73,-55.16 276.11,-52.51"/>
</g>
<!-- 3&#45;&#45;1 -->
<g id="2" class="edge link&#45;class">
<title>3&#45;&#45;1</title>
<path fill="none" stroke="black" d="M275.76,-29.66C263.97,-23.71 248.6,-17.04 234,-14 203.42,-7.63 167.35,-10.44 143.64,-13.65"/>
</g>
<!-- 3&#45;&#45;2 -->
<g id="7" class="edge link&#45;class">
<title>3&#45;&#45;2</title>
<path fill="none" stroke="black" d="M269.92,-41C258.72,-41 245.64,-41 234.4,-41"/>
</g>
</g>
</svg>
